<?xml version="1.0" encoding="UTF-8"?>
<svg width="220px" height="158px" viewBox="0 0 220 158" version="1.1" xmlns="http://www.w3.org/2000/svg" xmlns:xlink="http://www.w3.org/1999/xlink">
    <!-- Generator: Sketch 55.2 (78181) - https://sketchapp.com -->
    <title>Logo</title>
    <desc>Created with Sketch.</desc>
    <g id="Logo" stroke="none" stroke-width="1" fill="none" fill-rule="evenodd">
        <g transform="translate(0.000000, 2.000000)">
            <g id="pill-yellow-purple" transform="translate(0.000000, 17.000000)" fill-rule="nonzero">
                <path d="M130.084533,22.6099583 C124.705745,13.6412832 116.560724,7.90721231 106.110507,5.55477295 C91.8182995,2.46719629 80.7533645,7.76018485 60.4676502,27.314837 L48.4806372,38.7829789 L74.298819,63.4835922 L100.117001,88.1842055 L114.409209,74.0695693 C130.699252,57.8965487 134.541243,51.4273405 134.541243,38.7829789 C134.541243,31.7256608 133.619165,28.4910567 130.084533,22.6099583 Z" id="Shape" fill="#FFF7B0" transform="translate(91.510940, 46.459716) rotate(1.000000) translate(-91.510940, -46.459716) "></path>
                <g id="Group" transform="translate(70.000000, 69.500000) scale(-1, 1) rotate(-180.000000) translate(-70.000000, -69.500000) " fill="#6D5BB8">
                    <path d="M80.7376595,134.820503 C70.3784758,129.640912 8.0794962,66.9102994 3.90704722,57.414381 C-2.42356503,43.1705035 0.453985994,24.7541769 10.9570472,12.9562178 C18.4386799,4.46744225 28.3662309,0.294993269 41.3152105,0.294993269 C58.5805166,0.294993269 61.3141901,2.30927898 99.8733737,40.8684627 C137.857047,78.9960137 139.871333,82.0174422 139.727455,98.8511157 C139.583578,115.397034 130.807047,128.777646 115.556027,135.683769 C106.491741,139.856218 89.9458227,139.424585 80.7376595,134.820503 Z M115.412149,127.051116 C124.18868,122.015401 129.799904,114.389891 132.101945,104.606218 C135.123374,91.2256055 129.943782,80.8664218 110.808068,61.8745851 L99.5856186,50.6521361 L75.4141901,74.8235647 L51.2427615,98.9949933 L65.0550064,112.375606 C80.881537,127.626626 87.2121493,131.223565 99.5856186,131.223565 C106.491741,131.223565 109.657047,130.360299 115.412149,127.051116 Z" id="Shape"></path>
                </g>
            </g>
            <circle id="Oval" stroke="#C0B0FF" stroke-width="3" fill="#FFF7B0" cx="170.5" cy="25.5" r="16.5"></circle>
            <circle id="Oval" stroke="#C0B0FF" stroke-width="3" fill="#FFF7B0" cx="162.5" cy="63.5" r="8.5"></circle>
            <circle id="Oval" stroke="#C0B0FF" stroke-width="3" fill="#FFF7B0" cx="209.5" cy="46.5" r="8.5"></circle>
            <circle id="Oval" stroke="#C0B0FF" stroke-width="3" fill="#FFF7B0" cx="205.5" cy="20.5" r="4.5"></circle>
            <circle id="Oval" stroke="#C0B0FF" stroke-width="3" fill="#FFF7B0" cx="135.5" cy="4.5" r="4.5"></circle>
        </g>
    </g>
</svg>