<?xml version="1.0" encoding="UTF-8"?>
<svg width="97px" height="97px" viewBox="0 0 97 97" version="1.1" xmlns="http://www.w3.org/2000/svg" xmlns:xlink="http://www.w3.org/1999/xlink">
    <!-- Generator: Sketch 55.2 (78181) - https://sketchapp.com -->
    <title>pill-green-green</title>
    <desc>Created with Sketch.</desc>
    <g id="Pill-Icons" stroke="none" stroke-width="1" fill="none" fill-rule="evenodd">
        <g id="pill-green-green" transform="translate(-1.000000, -1.000000)" fill-rule="nonzero">
            <path d="M91.3899211,16.4097583 C87.6399211,10.176211 81.9613497,6.19082841 74.6756354,4.55579964 C64.7113497,2.40982437 56.997064,6.08863911 42.8542068,19.6798158 L34.497064,27.6505811 L52.497064,44.8183832 L70.497064,61.9861853 L80.4613497,52.1760127 C91.8184925,40.9351899 94.497064,36.4388607 94.497064,27.6505811 C94.497064,22.7454948 93.8542068,20.4973302 91.3899211,16.4097583 Z" id="Shape" fill="#B0FFE3" transform="translate(64.497064, 32.986185) rotate(1.000000) translate(-64.497064, -32.986185) "></path>
            <g id="Group" transform="translate(49.600000, 49.000000) scale(-1, 1) rotate(-180.000000) translate(-49.600000, -49.000000) translate(0.600000, 0.000000)" fill="#58C39D">
                <path d="M56.1155364,94.4000662 C48.9155364,90.8000662 5.61553636,47.2000662 2.71553636,40.6000662 C-1.68446364,30.7000662 0.315536365,17.9000662 7.61553636,9.70006624 C12.8155364,3.80006624 19.7155364,0.900066244 28.7155364,0.900066244 C40.7155364,0.900066244 42.6155364,2.30006624 69.4155364,29.1000662 C95.8155364,55.6000662 97.2155364,57.7000662 97.1155364,69.4000662 C97.0155364,80.9000662 90.9155364,90.2000662 80.3155364,95.0000662 C74.0155364,97.9000662 62.5155364,97.6000662 56.1155364,94.4000662 Z M80.2155364,89.0000662 C86.3155364,85.5000662 90.2155364,80.2000662 91.8155364,73.4000662 C93.9155364,64.1000662 90.3155364,56.9000662 77.0155364,43.7000662 L69.2155364,35.9000662 L52.4155364,52.7000662 L35.6155364,69.5000662 L45.2155364,78.8000662 C56.2155364,89.4000662 60.6155364,91.9000662 69.2155364,91.9000662 C74.0155364,91.9000662 76.2155364,91.3000662 80.2155364,89.0000662 Z" id="Shape"></path>
            </g>
        </g>
    </g>
</svg>